<?xml version="1.0" encoding="UTF-8"?>
<svg id="Capa_2" data-name="Capa 2" xmlns="http://www.w3.org/2000/svg" viewBox="0 0 379.89 82.47">
  <defs>
    <style>
      .cls-1 {
        fill: #e34e95;
      }

      .cls-2 {
        fill: #0009aa;
      }
    </style>
  </defs>
  <g id="Black_Pink_Blue" data-name="Black/Pink+Blue">
    <g>
      <g>
        <g>
          <path d="M23.79,25.4c2.05-1.6,4-2.92,5.79-4.05s3.89-2.33,6.34-3.54c2.46-1.22,5.07-2.34,7.84-3.34s5.57-1.83,8.36-2.49c2.79-.66,5.34-1.11,7.6-1.41,2.26-.3,5.5-.99,7.77-.66.21.03.5.36.72.83.23.46.41,1.07.57,1.8.15.75.28,1.6.38,2.58.09.97.17,2.04.24,3.18-4.36-.34-8.02-.63-10.98-.99-2.97-.36-5.28-.59-7.03-.83s-3.33-.55-4.74-.93c-.3-.12-.77-.12-1.4,0s-1.24.3-1.84.54-1.16.51-1.65.81-.8.55-.87.79c-2.19,5.74-3.1,8.93-4.43,15.66-.06.27.17.48.66.65s1.08.27,1.76.31c.68.05,1.4,0,2.18-.09s1.44-.29,1.96-.56c.22-.14.92-.44,2.08-.92,1.16-.46,2.81-.97,4.95-1.5s4.78-1.01,7.94-1.36c3.17-.38,6.9-.48,11.28-.19-.07,1.14-.18,2.22-.28,3.22-.12,1.01-.27,1.89-.47,2.64-.2.77-.38,1.38-.52,1.83s-.36.72-.58.77c-.3.05-1.41-.03-3.28-.19-1.86-.17-4.22-.39-6.99-.63s-5.86-.49-9.21-.68-6.61-.24-9.89-.26c-3.27,0-6.78.09-10.28.42-3.49.34-6.65.9-9.3,1.6-2.65.69-4.74,1.5-6.3,2.19-1.56.7-2.33,1.16-2.42,1.16-.2.03-.18-.19.05-.7.23-.49.61-1.17,1.15-1.99.55-.82,1.2-1.76,1.98-2.76s1.64-2.04,2.57-3.06c.93-1.04,1.89-2.03,2.85-2.95.96-.94,1.85-1.77,2.65-2.47.81-.72,1.47-1.28,1.96-1.69.49-.42.78-.65.83-.68v-.05Z"/>
          <path d="M71.04,7.91c.47-.58,1.36-.9,6.69-.81,3.3.06,4.95.08,5.29.21,4.75,1.7,2.28,10.01,7.2,16.82,2.39,3.3,5.39,4.69,11.3,7.42,5.22,2.42,14.52,5.86,27.65,6.45.44.73.81,1.44,1.14,2.11.31.68.56,1.28.71,1.81.15.54.23.99.25,1.35.03.34-.03.57-.18.66-.25.12-1.48.44-3.87.73-2.38.3-5.4.51-9.19.49-3.79-.03-8.07-.29-12.85-.78s-9.44-1.16-13.81-1.84c0,0-3.95-.57-11.27-1.92-4.36-.81-4.67-.94-5.05-1.2-3.21-2.13-3.23-6.87-3.27-15.6,0-2.13.07-4.07-.18-7.2-.12-1.47-.21-2.96-.36-4.42-.31-3.04-.69-3.61-.18-4.26v-.03Z"/>
          <path d="M9.57,45.27c3.12-2.01,6.3-3.22,9.2-4.04,2.9-.82,6.33-1.45,10.11-1.8,3.78-.34,7.59-.38,11.1-.24,3.49.14,7.04.31,10.58.61,3.54.31,6.78.69,9.66,1.06s6.98.45,9.85,1.4c.3.09.65.58.96,1.23s.58,1.47.82,2.46.45,2.13.61,3.39c.17,1.27.33,2.62.48,4.08-5.25-1.23-9.72-2.59-13.4-3.98-3.68-1.38-6.63-2.56-8.9-3.6-2.26-1.04-4.4-2.19-6.38-3.43-.44-.33-1.06-.57-1.88-.73s-1.57-.21-2.3-.19c-.73.03-1.38.14-1.96.3-.58.18-.89.42-.92.73-.49,7.89.05,12.27-.49,20.3-.02.33.27.66.84,1.03s1.21.71,1.92,1c.7.28,1.45.5,2.28.63.81.14,1.5.12,2.06-.04.24-.09.96-.24,2.22-.44s3.06-.28,5.5-.25c2.45.03,5.67.34,9.18.68s7.74,1.06,12.69,2.11c-.01,1.4-.52,2.5-.98,3.55-.45,1.05-.84,2-1.22,2.79-.38.81-.66,1.46-.89,1.94s-.48.75-.72.75c-.31,0-1.5-.25-3.47-.79-1.97-.52-4.44-1.26-7.35-2.18-2.93-.92-6.15-2-9.63-3.15-3.48-1.16-6.84-2.21-10.21-3.31-3.38-1.12-7.47-2.1-11.7-2.61-4.23-.51-8.17-.5-11.49-.06s-5.88,1.25-7.79,2.05c-1.9.81-2.82,1.41-2.97,1.43-.3.04-.52-.25-.66-.9-.13-.65-.2-1.53-.15-2.64.04-1.09.13-2.34.32-3.72s.45-2.77.81-4.22c.36-1.44.78-2.82,1.23-4.17.46-1.33.92-2.53,1.36-3.57.43-1.05.81-1.88,1.11-2.51.29-.61.48-.96.55-1.01l-.03.04Z"/>
          <path d="M75.99,44.22c3.65.56,6.95,1.05,9.93,1.48,5.21.77,9.21,1.24,9.95,1.33,10.8,1.34,29.34,1.18,33.95,1.14-.48,1.26-1.35,3.04-2.98,4.57-5,4.7-13.48,3.74-21.04,2.79-8.38-1.05-12.92-3.04-14.53-.82-.96,1.32-.55,3.68.36,5.13,1.16,1.83,3.24,2.46,4.56,2.76,9.36,2.08,26.56-1.95,27.52.23.69,1.56-5.97,8.61-14.7,9.36-8.62.74-14.29-5.11-17.19-2.52-2.86,2.56,1.5,9.33-1.64,11.9-2.4,1.95-7.73.31-12.44-1.14-1.25-.39-2.24-.75-2.9-1.02-.31-.3-.48-1.02-.45-2.15s.23-2.49.68-4.02c.45-1.54.79-3.33.74-5.49-.06-2.18-.1-4.36-.12-6.55-.03-2.21-.03-4.32,0-6.34.01-2.21.03-3.55.09-5.42.07-2.16.18-3.95.25-5.22h-.03Z"/>
          <path d="M75.99,44.22c3.65.56,6.95,1.05,9.93,1.48,5.21.77,9.21,1.24,9.95,1.33,10.8,1.34,29.34,1.18,33.95,1.14-.48,1.26-1.35,3.04-2.98,4.57-5,4.7-13.48,3.74-21.04,2.79-8.38-1.05-12.92-3.04-14.53-.82-.96,1.32-.55,3.68.36,5.13,1.16,1.83,3.24,2.46,4.56,2.76,9.36,2.08,26.56-1.95,27.52.23.69,1.56-5.97,8.61-14.7,9.36-8.62.74-14.29-5.11-17.19-2.52-2.86,2.56,1.5,9.33-1.64,11.9-2.4,1.95-7.73.31-12.44-1.14-1.25-.39-2.24-.75-2.9-1.02-.31-.3-.48-1.02-.45-2.15s.23-2.49.68-4.02c.45-1.54.79-3.33.74-5.49-.06-2.18-.1-4.36-.12-6.55-.03-2.21-.03-4.32,0-6.34.01-2.21.03-3.55.09-5.42.07-2.16.18-3.95.25-5.22h-.03Z"/>
        </g>
        <path d="M94.56,4.67c.21.78.42,1.54.61,2.32.69.27,1.38.52,2.07.79-.66.15-1.32.3-2,.46-.23.89-.47,1.77-.69,2.67-.23-.9-.45-1.8-.68-2.7-.68-.14-1.33-.29-2.01-.42.71-.29,1.41-.55,2.11-.84.2-.77.38-1.53.57-2.28h0Z"/>
        <path d="M117.24,22.1c.25.87.51,1.74.77,2.61.84.3,1.68.6,2.52.9-.81.17-1.62.34-2.44.51-.29.99-.57,1.99-.85,2.98-.27-1.01-.56-2.03-.83-3.03-.83-.15-1.63-.31-2.46-.46.87-.31,1.73-.63,2.6-.94.23-.85.46-1.71.69-2.57h.01Z"/>
        <path d="M120.81,2.64c.17.65.31,1.28.48,1.92.52.23,1.05.43,1.59.66-.51.12-1.02.26-1.53.38-.18.74-.36,1.47-.52,2.19-.18-.75-.35-1.49-.52-2.24-.51-.12-1.04-.23-1.54-.35.54-.23,1.08-.46,1.62-.69.15-.63.29-1.26.43-1.88Z"/>
        <path d="M117.24,5.21c.25.94.5,1.9.75,2.85.83.33,1.65.66,2.48.98-.79.2-1.59.38-2.38.57-.27,1.1-.56,2.18-.83,3.27-.27-1.11-.54-2.21-.81-3.32-.79-.17-1.6-.35-2.4-.51.84-.35,1.69-.69,2.54-1.04.23-.93.45-1.88.67-2.8h-.02Z"/>
        <path class="cls-2" d="M100.47,9.27c1.98,1.49,3.96,2.97,5.94,4.47,1.96-1.56,3.93-3.12,5.88-4.68-.78,1.05-1.56,2.08-2.35,3.14-.85,1.14-1.71,2.28-2.56,3.4,1.47,2.11,2.94,4.21,4.41,6.33-1.74-1.59-3.48-3.2-5.22-4.79-1.79,1.68-3.57,3.38-5.35,5.05l4.38-6.52c-1.71-2.13-3.42-4.27-5.15-6.4h.03Z"/>
        <path class="cls-2" d="M98.27,13.37c2.44.32,4.89.61,7.35.93.94-2.34,1.89-4.66,2.85-7.01-.17,1.29-.35,2.6-.52,3.9-.19,1.43-.39,2.83-.58,4.24,2.31,1.11,4.62,2.21,6.93,3.32-2.29-.53-4.59-1.05-6.87-1.58-.73,2.35-1.47,4.71-2.19,7.07.21-2.62.44-5.23.65-7.86-2.54-1.01-5.07-2.03-7.59-3.03l-.02.02Z"/>
        <path class="cls-2" d="M98.65,18.95c2.1-1.3,4.2-2.62,6.3-3.93-.71-2.41-1.41-4.83-2.13-7.26.67,1.12,1.35,2.23,2.01,3.38.73,1.23,1.46,2.45,2.19,3.67,2.49-.6,4.96-1.2,7.46-1.8-2.12,1.05-4.21,2.09-6.33,3.14.88,2.29,1.79,4.59,2.67,6.9-1.46-2.17-2.91-4.35-4.38-6.53-2.6.83-5.19,1.64-7.8,2.46l.02-.03Z"/>
        <path class="cls-2" d="M106.47,7.73c.42,2.45.83,4.89,1.25,7.35,2.56.42,5.15.84,7.71,1.26-2.55.16-5.12.33-7.67.49-.35,3.02-.67,6.03-1.02,9.04-.44-3.06-.88-6.14-1.32-9.2-2.71-.15-5.44-.28-8.16-.43,2.79-.42,5.58-.84,8.39-1.26.29-2.41.56-4.83.84-7.26h-.02Z"/>
        <path class="cls-1" d="M81.68.86c.21,2.07-42.15.96-67.51,27.65-6.83,7.19-11.25,14.64-14.16,21.04C.63,34.05,1.26,18.56,1.89,3.05,64.16-.6,81.54-.48,81.68.86Z"/>
        <path class="cls-2" d="M93.54,82.04c.23-1.54.51-3.84.66-6.65.12-2.31.03-2.77.44-3.17,1.76-1.73,6.32,3.96,13.32,3.89,6.15-.06,11.76-4.51,13.54-5.94,1.04-.82,1.85-1.59,2.4-2.15.03,4.2.08,8.4.1,12.58"/>
      </g>
      <g>
        <path d="M157.37,33.77c-.42,1.29-1.35,3.42-1.8,4.01-.78.18-2.29.53-4.14.53-4.54,0-7.86-2.59-7.86-7.26,0-6.09,4.89-9.85,10.42-9.85,2.27,0,3.69.45,4.67.63-.19,1.07-.45,2.82-.6,4.33l-.9.07c-.19-2.88-1.2-3.96-3.39-3.96-3.52,0-6.51,3.78-6.51,8.92,0,3.93,1.85,5.97,4.29,5.97,1.92,0,3.31-.99,5-3.73l.83.33v.02Z"/>
        <path d="M163.94,29c1.37-1.56,2.87-2.57,4.04-2.57.9,0,1.21,1.08.63,3.63l-.12.56c1.25-2.23,2.77-4.19,3.99-4.19.83,0,1.37.7,1.37,1.36,0,.81-.71,1.81-1.27,2.19-.27.18-.48.18-.63,0-.4-.44-.75-.75-1.08-.75-.72,0-2,2.3-2.27,2.86-.6,1.23-1.08,3.66-1.44,5.56-.94.1-2.1.33-2.87.56l-.19-.22c.63-2.55,1.35-5.67,1.69-7.48.33-1.53.25-1.74.04-1.74s-.9.44-1.52,1.04l-.38-.81Z"/>
        <path d="M182.02,38.22c-1.52,0-3.15-.82-3.15-3.82,0-2.37,1-4.92,2.87-6.41,1.02-.78,2.62-1.56,3.99-1.56,1.81,0,2.64,1.04,2.64,2.22,0,2.64-3.79,3.66-6.25,4.12-.03.22-.04.78-.04.96,0,1.31.4,2.47,1.74,2.47,1.21,0,2.48-.73,3.66-1.99l.4.81c-1.85,2.23-3.96,3.2-5.87,3.2h.01ZM182.22,31.82c2.6-.63,3.39-1.69,3.39-3.03,0-.82-.42-1.19-1-1.19-.65,0-1.92.78-2.4,4.2v.02Z"/>
        <path d="M206.22,35.37c-1.35,1.77-3.17,2.85-4.25,2.85-.83,0-1.25-.73-.79-3.1l.18-.89c-.95,1.36-2.04,2.42-2.7,2.9-.87.7-1.59,1.08-2.45,1.08-1.05,0-1.88-1.01-1.88-3.05,0-2.44.97-4.99,2.75-6.65,1.37-1.23,3.34-2.08,5.19-2.08,1.39,0,2.92.41,3.5.45-.5,1.96-1.32,5.79-1.67,7.89-.11.63-.08.99.12.99.27,0,.86-.38,1.58-1.14l.42.75ZM200.92,33.33c.42-.6.79-1.38,1.05-2.37.22-1.04.53-2.32.63-3-.34-.19-1.09-.36-1.59-.36-2.29,0-3.42,4.18-3.38,6.85,0,1.01.27,1.44.63,1.44.55,0,1.44-.73,2.67-2.57h-.01Z"/>
        <path d="M219.71,27.84c-.38.05-1.67.12-2.37.15-1.17,5.7-1.12,5.39-1.37,6.82-.18.93-.04,1.14.18,1.14.48,0,1.29-.56,2.07-1.44l.41.78c-.97,1.33-2.94,2.93-4.49,2.93-1.17,0-1.67-.89-1.08-3.6l1.39-6.63h-1.95l-.04-.22.78-1.04h1.5l.55-2.62c.86-.43,2.29-1.18,3-1.74l.38.22c-.27.9-.75,2.82-1.02,4.12h2.64l-.55,1.11h-.03Z"/>
        <path d="M230.82,35.45c-1.58,1.92-3.34,2.78-4.37,2.78-.83,0-1.28-.75-.87-2.52.48-2.01,1.05-4.19,1.42-5.86.18-.73.15-.96-.08-.96-.25,0-.83.36-1.37.82l-.38-.81c1.67-1.64,3.45-2.47,4.37-2.47.86,0,1.05.78.5,3.12-.38,1.56-.93,3.73-1.29,5.3-.18.63-.18.99.03.99s.83-.36,1.62-1.19l.42.81h-.01ZM231.25,22.85c0,1.01-.75,1.96-1.84,1.96-.9,0-1.51-.58-1.51-1.56,0-.85.67-1.93,1.95-1.93.97,0,1.42.71,1.42,1.53h-.02Z"/>
        <path d="M236.73,29.07c1.23-1.6,2.7-2.64,3.67-2.64s1.35,1.06,1.5,3.18c.22,3.05.22,4.71.27,5.62,1.59-1.89,3.15-3.9,3.15-5.39,0-.68-.34-1.23-.53-1.56-.04-.18-.15-.33-.04-.53.2-.63,1.2-1.31,1.92-1.31s1.12.63,1.16,1.64c0,.85-.38,2.07-1.59,3.75-1.51,2.07-4.17,4.99-5.54,6.41h-1.08c-.12-1.45-.27-4.86-.64-8.01-.12-1.01-.2-1.44-.5-1.44-.22,0-.72.36-1.32,1.11l-.41-.81-.03-.03Z"/>
        <path d="M256.71,38.22c-1.51,0-3.15-.82-3.15-3.82,0-2.37,1-4.92,2.87-6.41,1.02-.78,2.62-1.56,3.99-1.56,1.82,0,2.64,1.04,2.64,2.22,0,2.64-3.79,3.66-6.25,4.12-.03.22-.04.78-.04.96,0,1.31.41,2.47,1.74,2.47,1.23,0,2.47-.73,3.67-1.99l.41.81c-1.84,2.23-3.96,3.2-5.87,3.2ZM256.91,31.82c2.59-.63,3.39-1.69,3.39-3.03,0-.82-.42-1.19-1-1.19-.64,0-1.92.78-2.4,4.2l.02.02Z"/>
        <path d="M292.47,33.59c-.27.96-1.25,3.48-1.72,4.33h-12.38l.18-.89c1.92-.15,2.14-.38,2.52-2.34l1.95-10.11c.34-1.79.12-1.99-1.82-2.15l.22-.9h7.63l-.18.9c-2.04.12-2.25.38-2.57,2.16l-1.92,9.87c-.34,1.92-.2,2.32,1.25,2.32h1.28c1.08,0,1.88-.12,2.67-.85.6-.58,1.5-1.77,2-2.7l.9.33v.02Z"/>
        <path d="M310.39,35.37c-1.35,1.77-3.17,2.85-4.25,2.85-.83,0-1.25-.73-.79-3.1l.18-.89c-.95,1.36-2.04,2.42-2.7,2.9-.87.7-1.59,1.08-2.45,1.08-1.05,0-1.88-1.01-1.88-3.05,0-2.44.97-4.99,2.75-6.65,1.37-1.23,3.34-2.08,5.19-2.08,1.39,0,2.92.41,3.5.45-.5,1.96-1.32,5.79-1.67,7.89-.11.63-.08.99.12.99.27,0,.86-.38,1.58-1.14l.42.75ZM305.12,33.33c.42-.6.79-1.38,1.05-2.37.22-1.04.53-2.32.63-3-.34-.19-1.09-.36-1.59-.36-2.29,0-3.42,4.18-3.38,6.85,0,1.01.27,1.44.63,1.44.55,0,1.44-.73,2.67-2.57h-.01Z"/>
        <path d="M317.85,21.17c1.65-.2,2.92-.53,3.72-.71.45-.1.75-.2.93-.2.3,0,.33.3.22.81-.64,2.71-1.29,5.67-2,8.64,1.05-1.41,3.32-3.27,5.07-3.27,1.58,0,2.07,1.67,2.07,3.15,0,2.71-1.47,5.59-3.87,7.2-1.35.93-2.92,1.44-4.09,1.44-1.08,0-1.84-.27-2.33-.78-.72-.73-.9-1.74-.42-4.11.57-3.12,1.28-6.26,2.04-9.95.22-1.14.11-1.23-.83-1.3-.25-.03-.57-.08-.72-.08l.2-.83v-.03ZM324.62,30.03c0-1.08-.3-1.56-.83-1.56s-1.44.44-2.67,2.04c-.72.96-.93,2.16-1.17,3.45-.48,2.34.33,3.05,1.23,3.05,1.67,0,3.42-3.6,3.45-6.97h-.02Z"/>
        <path d="M345.06,30.54c0,2.59-1.2,5.27-3.62,6.68-.95.58-2.14,1.01-3.39,1.01-3,0-3.79-2.27-3.79-4.12,0-3.58,2.04-6.09,4.59-7.16.83-.33,1.74-.51,2.49-.51,2.49,0,3.72,1.67,3.72,4.11ZM337.53,34.23c0,1.94.6,2.85,1.54,2.85,1.72,0,2.75-3.63,2.75-6.72,0-1.96-.6-2.82-1.5-2.82-2.19,0-2.79,4.86-2.79,6.7v-.02Z"/>
        <path d="M363.67,35.45c-1.51,1.96-3.17,2.78-4.26,2.78-.9,0-1.2-.82-.79-2.74.11-.48.18-.82.27-1.29-.87,1.16-1.59,1.96-2.71,2.93-.48.41-1.47,1.11-2.52,1.11-.97,0-2-.6-1.29-3.66.34-1.52.75-3.07,1.17-4.96.15-.63.15-.89-.08-.89-.25,0-1.05.58-1.54,1.08l-.38-.81c1.5-1.64,3.38-2.57,4.33-2.57.87,0,1.17.7.63,3.07-.34,1.48-.78,3.03-1.16,4.83-.27,1.14-.11,1.56.27,1.56.71,0,1.74-1.04,2.62-2.3.53-.78,1-1.64,1.39-3.15.22-.89.45-2.01.72-3.33.83-.22,1.92-.51,2.78-.7h.34c-.63,2.52-1.5,6.15-1.88,8.39-.11.66-.11.93.11.93s.71-.19,1.51-1.08l.45.78v.03Z"/>
        <path d="M369.97,29c1.38-1.56,2.87-2.57,4.04-2.57.9,0,1.21,1.08.63,3.63l-.12.56c1.25-2.23,2.78-4.19,3.99-4.19.83,0,1.38.7,1.38,1.36,0,.81-.71,1.81-1.28,2.19-.27.18-.48.18-.63,0-.41-.44-.75-.75-1.08-.75-.72,0-2,2.3-2.26,2.86-.6,1.23-1.08,3.66-1.46,5.56-.95.1-2.1.33-2.87.56l-.2-.22c.63-2.55,1.35-5.67,1.7-7.48.33-1.53.25-1.74.04-1.74s-.9.44-1.51,1.04l-.38-.81Z"/>
        <path d="M157.37,62.48c-.42,1.29-1.35,3.42-1.8,4-.78.18-2.29.52-4.14.52-4.54,0-7.86-2.59-7.86-7.26,0-6.09,4.89-9.85,10.42-9.85,2.27,0,3.69.45,4.67.63-.19,1.06-.45,2.82-.6,4.33l-.9.07c-.19-2.86-1.2-3.96-3.39-3.96-3.52,0-6.51,3.78-6.51,8.93,0,3.93,1.85,5.97,4.29,5.97,1.92,0,3.31-.99,5-3.74l.83.33v.02Z"/>
        <path d="M163.94,57.71c1.37-1.56,2.87-2.56,4.04-2.56.9,0,1.21,1.08.63,3.63l-.12.55c1.25-2.24,2.77-4.19,3.99-4.19.83,0,1.37.71,1.37,1.36,0,.81-.71,1.81-1.27,2.19-.27.18-.48.18-.63,0-.4-.44-.75-.75-1.08-.75-.72,0-2,2.29-2.27,2.86-.6,1.23-1.08,3.66-1.44,5.56-.94.1-2.1.33-2.87.55l-.19-.23c.63-2.55,1.35-5.67,1.69-7.48.33-1.53.25-1.74.04-1.74s-.9.44-1.52,1.03c0,0-.38-.81-.38-.81Z"/>
        <path d="M185.42,64.16c-1.58,1.92-3.35,2.77-4.37,2.77-.83,0-1.27-.75-.87-2.52.48-2.01,1.05-4.19,1.42-5.86.18-.74.15-.96-.08-.96-.25,0-.83.36-1.37.82l-.38-.81c1.67-1.64,3.45-2.48,4.37-2.48.85,0,1.05.78.5,3.12-.38,1.56-.93,3.74-1.29,5.29-.18.63-.18.99.03.99s.83-.36,1.62-1.19l.42.81h-.01ZM185.83,51.56c0,1-.75,1.97-1.85,1.97-.9,0-1.52-.58-1.52-1.56,0-.85.67-1.94,1.95-1.94.98,0,1.42.71,1.42,1.53h-.01Z"/>
        <path d="M199.2,56.55c-.38.04-1.67.12-2.37.15-1.17,5.7-1.12,5.39-1.37,6.82-.18.93-.04,1.14.18,1.14.48,0,1.29-.55,2.07-1.44l.41.78c-.97,1.33-2.94,2.93-4.49,2.93-1.17,0-1.67-.89-1.08-3.6l1.39-6.63h-1.95l-.04-.23.78-1.03h1.5l.55-2.62c.86-.44,2.29-1.19,3-1.74l.38.23c-.27.9-.75,2.82-1.02,4.12h2.64l-.55,1.11-.03.02Z"/>
        <path d="M210.33,64.16c-1.58,1.92-3.34,2.77-4.37,2.77-.83,0-1.28-.75-.87-2.52.48-2.01,1.05-4.19,1.42-5.86.18-.74.15-.96-.08-.96-.25,0-.83.36-1.37.82l-.38-.81c1.67-1.64,3.45-2.48,4.37-2.48.86,0,1.05.78.5,3.12-.38,1.56-.93,3.74-1.29,5.29-.18.63-.18.99.03.99s.83-.36,1.62-1.19l.42.81h-.01ZM210.75,51.56c0,1-.75,1.97-1.84,1.97-.9,0-1.51-.58-1.51-1.56,0-.85.67-1.94,1.95-1.94.97,0,1.42.71,1.42,1.53h-.02Z"/>
        <path d="M225.24,64.01c-1.7,2-3.66,2.93-5.37,2.93-2,0-3.17-1.44-3.17-3.82,0-2.15.9-4.49,2.71-6.09,1.09-.99,2.97-1.86,4.33-1.86,1.21,0,2.14.45,2.17,1.23.03.63-.53,1.41-1.08,1.67-.3.12-.55.07-.75-.15-.75-.93-1.32-1.44-1.95-1.44-1.23,0-2.17,2.86-2.17,5.86,0,1.84.64,2.59,1.65,2.59,1.09,0,2.17-.66,3.2-1.67l.41.75h.01Z"/>
        <path d="M243.38,64.08c-1.35,1.77-3.17,2.85-4.25,2.85-.83,0-1.25-.74-.79-3.1l.18-.89c-.95,1.36-2.04,2.42-2.7,2.9-.87.71-1.59,1.08-2.45,1.08-1.05,0-1.88-1-1.88-3.04,0-2.45.97-4.99,2.75-6.65,1.37-1.23,3.34-2.08,5.19-2.08,1.39,0,2.92.41,3.5.45-.5,1.97-1.32,5.79-1.67,7.89-.11.63-.08.99.12.99.27,0,.86-.38,1.58-1.14,0,0,.42.75.42.75ZM238.08,62.04c.42-.6.79-1.38,1.05-2.37.22-1.03.53-2.31.63-3-.34-.2-1.09-.36-1.59-.36-2.29,0-3.42,4.19-3.38,6.85,0,1,.27,1.44.63,1.44.55,0,1.44-.74,2.67-2.56h-.01Z"/>
        <path d="M255.11,64.19c-1.58,1.92-3.34,2.75-4.32,2.75-.83,0-1.32-.52-.86-2.9.71-3.41,1.67-8.22,2.42-11.97.22-1.11.08-1.22-.83-1.3-.22,0-.6-.07-.72-.07l.22-.81c1.62-.2,2.94-.45,3.74-.71.42-.15.71-.2.87-.2.3,0,.33.27.2.89-.97,4.49-2.22,10.74-2.85,13.72-.12.63-.12.9.08.9s.83-.33,1.58-1.11l.45.81h.03Z"/>
        <path d="M282.34,50.25c1.17,0,2.55,0,3.46-.03-.18.68-.55,2.82-.72,4.05l-.93.03c-.03-.74-.11-1.51-.3-2.04-.25-.74-.86-.9-1.89-.9h-1.89c-.87,0-1.23.2-1.37,1.08l-.97,5.37h2.4c2,0,2.1-.28,2.82-2h.97l-1.05,5.34h-.95c.03-1.94-.03-2.24-1.95-2.24h-2.52l-.86,4.56c-.34,1.94-.12,2.11,2.04,2.26l-.2.89h-7.63l.18-.89c1.74-.15,2-.41,2.34-2.32l1.92-9.95c.38-2,.15-2.16-1.77-2.32l.2-.9h8.66,0Z"/>
        <path d="M302.17,64.16c-1.51,1.97-3.17,2.77-4.26,2.77-.9,0-1.2-.82-.79-2.75.11-.48.18-.82.27-1.29-.87,1.16-1.59,1.97-2.71,2.93-.48.41-1.47,1.11-2.52,1.11-.97,0-2-.6-1.29-3.66.34-1.51.75-3.07,1.17-4.97.15-.63.15-.89-.08-.89-.25,0-1.05.58-1.54,1.08l-.38-.81c1.5-1.64,3.38-2.56,4.33-2.56.87,0,1.17.71.63,3.07-.34,1.49-.78,3.03-1.16,4.83-.27,1.14-.11,1.56.27,1.56.71,0,1.74-1.03,2.62-2.29.53-.78,1-1.64,1.39-3.15.22-.89.45-2.01.72-3.33.83-.23,1.92-.51,2.78-.71h.34c-.63,2.52-1.5,6.15-1.88,8.39-.11.66-.11.93.11.93s.71-.2,1.51-1.08l.45.78v.03Z"/>
        <path d="M315.92,56.55c-.38.04-1.67.12-2.37.15-1.17,5.7-1.12,5.39-1.37,6.82-.18.93-.04,1.14.18,1.14.48,0,1.29-.55,2.07-1.44l.41.78c-.97,1.33-2.94,2.93-4.49,2.93-1.17,0-1.67-.89-1.08-3.6l1.39-6.63h-1.95l-.04-.23.78-1.03h1.5l.55-2.62c.86-.44,2.29-1.19,3-1.74l.38.23c-.27.9-.75,2.82-1.02,4.12h2.64l-.55,1.11-.03.02Z"/>
        <path d="M333.38,64.16c-1.51,1.97-3.17,2.77-4.26,2.77-.9,0-1.2-.82-.79-2.75.11-.48.18-.82.27-1.29-.87,1.16-1.59,1.97-2.71,2.93-.48.41-1.47,1.11-2.52,1.11-.97,0-2-.6-1.29-3.66.34-1.51.75-3.07,1.17-4.97.15-.63.15-.89-.08-.89-.25,0-1.05.58-1.54,1.08l-.38-.81c1.5-1.64,3.38-2.56,4.33-2.56.87,0,1.17.71.63,3.07-.34,1.49-.78,3.03-1.16,4.83-.27,1.14-.11,1.56.27,1.56.71,0,1.74-1.03,2.62-2.29.53-.78,1-1.64,1.39-3.15.22-.89.45-2.01.72-3.33.83-.23,1.92-.51,2.78-.71h.34c-.63,2.52-1.5,6.15-1.88,8.39-.11.66-.11.93.11.93s.71-.2,1.51-1.08l.45.78v.03Z"/>
        <path d="M339.67,57.71c1.37-1.56,2.87-2.56,4.04-2.56.9,0,1.21,1.08.63,3.63l-.12.55c1.25-2.24,2.78-4.19,3.99-4.19.83,0,1.37.71,1.37,1.36,0,.81-.71,1.81-1.28,2.19-.27.18-.48.18-.63,0-.41-.44-.75-.75-1.08-.75-.72,0-2,2.29-2.26,2.86-.6,1.23-1.08,3.66-1.44,5.56-.95.1-2.1.33-2.87.55l-.2-.23c.63-2.55,1.35-5.67,1.7-7.48.33-1.53.25-1.74.04-1.74s-.9.44-1.51,1.03c0,0-.38-.81-.38-.81Z"/>
        <path d="M357.75,66.93c-1.51,0-3.15-.82-3.15-3.82,0-2.37,1-4.92,2.87-6.41,1.02-.78,2.62-1.56,3.99-1.56,1.82,0,2.64,1.03,2.64,2.22,0,2.64-3.79,3.66-6.25,4.12-.03.23-.04.78-.04.96,0,1.3.41,2.48,1.74,2.48,1.23,0,2.47-.74,3.66-2l.41.81c-1.84,2.24-3.96,3.2-5.87,3.2h.01ZM357.96,60.53c2.59-.63,3.39-1.7,3.39-3.03,0-.82-.42-1.19-1-1.19-.64,0-1.92.78-2.4,4.2l.02.02Z"/>
        <path d="M378,56.75c0,.55-.38,1.19-.97,1.49-.33.15-.5.12-.86-.2-.78-.82-1.38-1.36-2.07-1.36s-1.05.52-1.02,1.03c0,.66.79,1.19,1.72,1.86,1.46,1.06,2.52,1.77,2.52,3.15,0,2.29-3.42,4.2-5.16,4.2-1.37,0-2.79-.89-2.85-2.04-.03-.6.6-1.44,1.2-1.64.22-.07.38,0,.63.27.86,1.08,1.92,1.84,2.78,1.84.64,0,1.08-.48,1.08-1.03s-.22-.99-1.5-1.92c-1.25-.89-2.57-1.7-2.57-3.26,0-.96.45-1.86,1.59-2.79.97-.75,2.19-1.23,3.2-1.23,1.29,0,2.29.74,2.29,1.6v.02Z"/>
      </g>
    </g>
  </g>
</svg>